<?xml version="1.0" encoding="UTF-8"?>
<svg id="Layer_1" data-name="Layer 1" xmlns="http://www.w3.org/2000/svg" viewBox="0 0 17 27">
  <defs>
    <style>
      .cls-1 {
        stroke-linecap: round;
        stroke-linejoin: round;
      }

      .cls-1, .cls-2 {
        fill: none;
        stroke: #0b2341;
      }

      .cls-3 {
        fill: #0b2341;
        stroke-width: 0px;
      }

      .cls-2 {
        stroke-miterlimit: 10;
        stroke-width: .25px;
      }
    </style>
  </defs>
  <g>
    <path class="cls-3" d="m14.5,7.97v17.53l-.08.22-1.91-.72c.28-.01.49-.23.49-.5v-13c0-.28-.22-.5-.5-.5s-.5.22-.5.5v13c0,.15.08.3.19.38l-1.02-.38h-.67v-12.86c0-1.18-.9-2.14-2-2.14s-2,.96-2,2.14v12.86h-.66l-1.03.38c.12-.08.19-.22.19-.38v-13c0-.28-.22-.5-.5-.5s-.5.22-.5.5v13c0,.27.23.5.5.5l-1.92.72-.08-.22V7.97l2.8-1.47h6.4l2.8,1.47Z"/>
    <path class="cls-3" d="m14.5,6.5v1.47l-2.8-1.47h-6.4l-2.8,1.47v-1.47c.78-3.55,3.23-5,6-5s5.23,1.45,6,5Z"/>
  </g>
  <g>
    <path class="cls-1" d="m6.5,24.5v-12.86c0-1.18.91-2.14,2-2.14s2,.96,2,2.14v12.86"/>
    <path class="cls-1" d="m2.5,25.5V6.5c.78-3.55,3.23-5,6-5s5.23,1.45,6,5v19"/>
    <line class="cls-1" x1="8.5" y1=".5" x2="8.5" y2="1.5"/>
    <polyline class="cls-1" points="15.5 8.5 14.5 7.97 11.7 6.5 5.3 6.5 2.5 7.97 1.5 8.5"/>
    <polyline class="cls-1" points="12.51 25 14.42 25.72 16.5 26.5"/>
    <polyline class="cls-1" points="4.51 25 4.81 24.88 5.84 24.5 6.5 24.5 10.5 24.5 11.17 24.5 12.19 24.88 12.5 25"/>
    <polyline class="cls-1" points=".5 26.5 2.58 25.72 4.5 25"/>
    <path class="cls-2" d="m4.5,25c-.27,0-.5-.23-.5-.5v-13c0-.28.23-.5.5-.5s.5.22.5.5v13c0,.16-.07.3-.19.38-.08.08-.19.12-.3.12h-.01Z"/>
    <path class="cls-2" d="m12.5,25c-.12,0-.22-.04-.31-.12-.11-.08-.19-.23-.19-.38v-13c0-.28.23-.5.5-.5s.5.22.5.5v13c0,.27-.21.49-.49.5h-.01Z"/>
  </g>
</svg>