<?xml version="1.0" encoding="utf-8"?>
<!-- Generator: Adobe Illustrator 27.9.0, SVG Export Plug-In . SVG Version: 6.00 Build 0)  -->
<svg version="1.1" id="Layer_1" opacity="0.25" xmlns="http://www.w3.org/2000/svg" xmlns:xlink="http://www.w3.org/1999/xlink"
	 x="0px" y="0px" viewBox="0 0 1000 1000" style="enable-background:new 0 0 1000 1000;" xml:space="preserve">
<style type="text/css">
	.st0{fill:none;stroke:#0B2341;stroke-width:3;stroke-linecap:round;stroke-linejoin:round;stroke-miterlimit:10;}
	.st1{fill:none;stroke:#0B2341;stroke-width:3;stroke-linecap:round;stroke-linejoin:round;}
	.st2{fill:#0B2341;}
	.st3{font-family:'ArialRoundedMTBold';}
	.st4{font-size:12px;}
	.st5{font-size:14px;}
	.st6{letter-spacing:1;}
	.st7{font-size:24px;}
	.st8{font-size:21px;}
	.st9{fill:none;}
</style>
<path class="st0" d="M378,783v-27l18-27V423l36-18h72v315l9,9l-9,18v36h117v-27l-18-18V423l27-27c-9-6-18-12-27-18
	c0.07-7.68-0.7-31.72-18-54c-12.81-16.49-28.41-23.96-36-27"/>
<path class="st0" d="M585,387c-22.62-5.34-53.44-10.19-90-9c-41.44,1.35-75.37,9.99-99,18c-0.52-8.38-2.09-47.86,27-81
	c20.12-22.92,44.45-30.9,54.71-33.62c5.05-1.18,10.85-2.1,17.29-2.38c19.54-0.85,35.32,4.59,45,9"/>
<polyline class="st0" points="477,279 495,261 504,153 513,261 522,279 "/>
<line class="st0" x1="513" y1="702" x2="603" y2="702"/>
<path class="st0" d="M396,423"/>
<path class="st0" d="M423,666h-18c0-66,0-132,0-198c-0.36-2.69-0.45-5.72,0-9c2.09-15.25,14.29-24.42,18-27"/>
<path class="st0" d="M486,657h-45c0-63,0-126,0-189c-1.07-2.3-8.45-18.94,0-36c5.44-10.97,14.5-16.21,18-18"/>
<path class="st0" d="M522,657h45c0-63,0-126,0-189c1.82-6.24,4.88-20.05,0-36c-2.4-7.84-5.99-13.85-9-18"/>
<path class="st0" d="M585,666h9c0-66,0-132,0-198c0.8-3.6,1.75-10.15,0-18c-2.01-9.03-6.54-15.12-9-18"/>
<g>
	<g>
		<polyline class="st1" points="270,666 342,666 418.02,725.13 		"/>
		<g>
			<polygon class="st2" points="421.72,718.77 412.77,730.28 423,729 			"/>
		</g>
	</g>
</g>
<g>
	<g>
		<line class="st1" x1="375.31" y1="810" x2="614.69" y2="810"/>
		<g>
			<polygon class="st2" points="376.29,802.71 376.29,817.29 369,810 			"/>
		</g>
		<g>
			<polygon class="st2" points="613.71,802.71 613.71,817.29 621,810 			"/>
		</g>
	</g>
</g>
<line class="st0" x1="369" y1="801" x2="369" y2="819"/>
<line class="st0" x1="621" y1="801" x2="621" y2="819"/>
<g>
	<g>
		<line class="st1" x1="351" y1="159.31" x2="351" y2="389.69"/>
		<g>
			<polygon class="st2" points="358.29,160.29 343.71,160.29 351,153 			"/>
		</g>
		<g>
			<polygon class="st2" points="358.29,388.71 343.71,388.71 351,396 			"/>
		</g>
	</g>
</g>
<line class="st0" x1="342" y1="153" x2="360" y2="153"/>
<line class="st0" x1="342" y1="396" x2="360" y2="396"/>
<g>
	<g>
		<line class="st1" x1="729" y1="776.69" x2="729" y2="159.31"/>
		<g>
			<polygon class="st2" points="721.71,775.71 736.29,775.71 729,783 			"/>
		</g>
		<g>
			<polygon class="st2" points="721.71,160.29 736.29,160.29 729,153 			"/>
		</g>
	</g>
</g>
<line class="st0" x1="720" y1="153" x2="738" y2="153"/>
<line class="st0" x1="720" y1="783" x2="738" y2="783"/>
<circle class="st0" cx="186" cy="627" r="15"/>
<text transform="matrix(1 0 0 1 178.1191 630.9185)" class="st2 st3 st4">A7</text>
<text transform="matrix(1 0 0 1 135.6045 666)"><tspan x="0" y="0" class="st2 st3 st5 st6">CYLINDRICAL</tspan><tspan x="32.41" y="16.8" class="st2 st3 st5 st6">BASE</tspan></text>
<text transform="matrix(1 0 0 1 247.7344 279)" class="st2 st3 st7 st6">8.5 FT</text>
<text transform="matrix(1 0 0 1 761.7031 468)" class="st2 st3 st7 st6">20.5 FT</text>
<text transform="matrix(1 0 0 1 452.7407 837)" class="st2 st3 st8 st6">15.6 FT</text>
<rect x="513" y="879.28" class="st9" width="0.64" height="2.72"/>
</svg>
