<svg xmlns="http://www.w3.org/2000/svg" xmlns:xlink="http://www.w3.org/1999/xlink" viewBox="0 0 1500 1500" width="1500" height="1500" preserveAspectRatio="xMidYMid meet" style="width: 100%; height: 100%; transform: translate3d(0px, 0px, 0px); content-visibility: visible;" id="Plan"><defs><clipPath id="__lottie_element_12377"><rect width="1500" height="1500" x="0" y="0"/></clipPath><clipPath id="__lottie_element_12379"><path fill="#ffffff" clip-rule="nonzero" d=" M-23.75,-15.743000030517578 C-23.75,-15.743000030517578 932.25,-11.743000030517578 932.25,-11.743000030517578 C932.25,-11.743000030517578 932.25,740.2579956054688 932.25,740.2579956054688 C932.25,740.2579956054688 -23.75,736.2579956054688 -23.75,736.2579956054688 C-23.75,736.2579956054688 -23.75,-15.743000030517578 -23.75,-15.743000030517578" fill-opacity="1"/></clipPath><symbol id="__lottie_element_12390"><g><g transform="matrix(1,0,0,1,748.81201171875,750)" opacity="1" style="display: block;"><g opacity="1" transform="matrix(1,0,0,1,-273.25,76.625)"><path fill="rgb(242,218,201)" fill-opacity="1" d=" M48.5,-35.125 C48.5,-35.125 48.5,35.125 48.5,35.125 C48.5,35.125 -48.5,35.125 -48.5,35.125 C-48.5,35.125 -48.5,-35.125 -48.5,-35.125 C-48.5,-35.125 48.5,-35.125 48.5,-35.125z"/></g></g></g></symbol><clipPath id="__lottie_element_12415"><path fill="#ffffff" clip-rule="nonzero" d=" M204.25,-58.14699935913086 C204.25,-58.14699935913086 -117.75,-50.14699935913086 -117.75,-50.14699935913086 C-117.75,-50.14699935913086 -117.75,843.85302734375 -117.75,843.85302734375 C-117.75,843.85302734375 204.25,835.85302734375 204.25,835.85302734375 C204.25,835.85302734375 204.25,-58.14699935913086 204.25,-58.14699935913086" fill-opacity="1"/></clipPath><mask id="__lottie_element_12390_1" mask-type="alpha"><use xmlns:ns1="http://www.w3.org/1999/xlink" ns1:href="#__lottie_element_12390"/></mask><clipPath id="__lottie_element_12430"><path fill="#ffffff" clip-rule="nonzero" d=" M154.38499450683594,773.443603515625 C154.38499450683594,773.443603515625 -21.614999771118164,773.443603515625 -21.614999771118164,773.443603515625 C-21.614999771118164,773.443603515625 -21.614999771118164,879.4929809570312 -21.614999771118164,879.4929809570312 C-21.614999771118164,879.4929809570312 154.38499450683594,879.4929809570312 154.38499450683594,879.4929809570312 C154.38499450683594,879.4929809570312 154.38499450683594,773.443603515625 154.38499450683594,773.443603515625" fill-opacity="1"/></clipPath></defs><g clip-path="url(#__lottie_element_12377)"><g clip-path="url(#__lottie_element_12379)" transform="matrix(1,0,0,1,213.74996948242188,519.7430419921875)" opacity="1" style="display: block;"><g opacity="1" transform="matrix(1,0,0,1,456.0950012207031,340.0880126953125)"><path fill="rgb(75,149,240)" fill-opacity="1" d=" M455.8450012207031,339.8370056152344 C455.8450012207031,339.8370056152344 -340.39801025390625,339.8370056152344 -340.39801025390625,339.8370056152344 C-404.1570129394531,339.8370056152344 -455.8450012207031,288.1499938964844 -455.8450012207031,224.39100646972656 C-455.8450012207031,224.39100646972656 -455.8450012207031,-339.8370056152344 -455.8450012207031,-339.8370056152344 C-455.8450012207031,-339.8370056152344 455.8450012207031,-339.8370056152344 455.8450012207031,-339.8370056152344 C455.8450012207031,-339.8370056152344 455.8450012207031,339.8370056152344 455.8450012207031,339.8370056152344z"/></g><g opacity="1" transform="matrix(1.0082600116729736,0,0,1,473.25,341.2569885253906)"><path stroke-linecap="butt" stroke-linejoin="miter" fill-opacity="0" stroke-miterlimit="4" stroke="rgb(112,176,255)" stroke-opacity="1" stroke-width="8.85" d=" M367,-275 C367,-275 367,275 367,275 C367,275 -367,275 -367,275 C-367,275 -367,-275 -367,-275 C-367,-275 367,-275 367,-275z"/></g></g><g clip-path="url(#__lottie_element_12415)" transform="matrix(1,0,0,1,213.7509765625,276.14703369140625)" opacity="1" style="display: block;"><g opacity="1" transform="matrix(1,0,0,1,83.81600189208984,404.32598876953125)"><path fill="rgb(10,35,64)" fill-opacity="1" d=" M83.56600189208984,348.364013671875 C83.56600189208984,348.364013671875 30.089000701904297,315.2330017089844 -15.28600025177002,329.6130065917969 C-78.58300018310547,349.6730041503906 -83.56600189208984,404.07501220703125 -83.56600189208984,404.07501220703125 C-83.56600189208984,404.07501220703125 -83.56600189208984,-291.7250061035156 -83.56600189208984,-291.7250061035156 C-83.56600189208984,-353.77398681640625 -33.26599884033203,-404.07501220703125 28.783000946044922,-404.07501220703125 C28.783000946044922,-404.07501220703125 66.85299682617188,-404.07598876953125 83.56600189208984,-381.7919921875 C83.56600189208984,-381.7919921875 83.56600189208984,348.364013671875 83.56600189208984,348.364013671875z"/></g></g><g transform="matrix(-0.8387515544891357,-0.5445142984390259,0.5445142984390259,-0.8387515544891357,977.07275390625,882.8438720703125)" opacity="1" style="display: block;"><g opacity="1" transform="matrix(1,0,0,1,35.9900016784668,35.36899948120117)"><path stroke-linecap="round" stroke-linejoin="round" fill-opacity="0" stroke="rgb(231,97,0)" stroke-opacity="1" stroke-width="10.495" d=" M-30.742000579833984,-30.121999740600586 C-30.742000579833984,-30.121999740600586 30.742000579833984,30.121999740600586 30.742000579833984,30.121999740600586"/></g><g opacity="1" transform="matrix(1,0,0,1,35.9900016784668,35.36899948120117)"><path stroke-linecap="round" stroke-linejoin="round" fill-opacity="0" stroke="rgb(231,97,0)" stroke-opacity="1" stroke-width="10.495" d=" M30.743000030517578,-30.121999740600586 C30.743000030517578,-30.121999740600586 -30.743000030517578,30.121999740600586 -30.743000030517578,30.121999740600586"/></g></g><g transform="matrix(1,0,0,1,406.6099853515625,776.3890380859375)" opacity="1" style="display: block;"><g opacity="1" transform="matrix(1,0,0,1,0,0)"><path fill="rgb(204,204,204)" fill-opacity="1" d=" M19.98200035095215,129.70199584960938 C19.98200035095215,129.70199584960938 19.98200035095215,19.98200035095215 19.98200035095215,19.98200035095215 C19.98200035095215,19.98200035095215 19.98200035095215,129.70199584960938 19.98200035095215,129.70199584960938z"/></g></g><g transform="matrix(1,0,0,1,750,750)" opacity="1" style="display: block;"><g opacity="1" transform="matrix(1,0,0,1,0,0)"><path stroke-linecap="butt" stroke-linejoin="miter" fill-opacity="0" stroke-miterlimit="4" stroke-dasharray=" 50 45" stroke-dashoffset="-360.9022216796875" stroke="rgb(112,176,255)" stroke-opacity="1" stroke-width="9.54" d=" M219,146 C219,146 192,256 83,256 C-100,246 6,-68 -155,-65 C-316,-62 -324,134 -322,148"/></g></g><g transform="matrix(1,0,0,1,406.6109924316406,776.3900146484375)" opacity="1" style="display: block;"><g opacity="1" transform="matrix(1,0,0,1,0,0)"><path stroke-linecap="round" stroke-linejoin="round" fill-opacity="0" stroke="rgb(231,97,0)" stroke-opacity="1" stroke-width="8.267" d=" M19.98200035095215,19.982999801635742 C19.98200035095215,19.982999801635742 19.98200035095215,129.7030029296875 19.98200035095215,129.7030029296875"/></g></g><g mask="url(#__lottie_element_12390_1)" style="display: block;"><g transform="matrix(1,0,0,1,405.93084716796875,776.3889770507812)" opacity="1"><g opacity="1" transform="matrix(1,0,0,1,64.5780029296875,50.42100143432617)"><path fill="rgb(231,97,0)" fill-opacity="1" d=" M-44.595001220703125,30.437999725341797 C-44.595001220703125,30.437999725341797 44.595001220703125,30.437999725341797 44.595001220703125,30.437999725341797 C44.595001220703125,30.437999725341797 14.866000175476074,0 14.866000175476074,0 C14.866000175476074,0 44.595001220703125,-30.437999725341797 44.595001220703125,-30.437999725341797 C44.595001220703125,-30.437999725341797 -44.595001220703125,-30.437999725341797 -44.595001220703125,-30.437999725341797 C-44.595001220703125,-30.437999725341797 -44.595001220703125,30.437999725341797 -44.595001220703125,30.437999725341797z"/><path stroke-linecap="round" stroke-linejoin="round" fill-opacity="0" stroke="rgb(231,97,0)" stroke-opacity="1" stroke-width="7.993" d=" M-44.595001220703125,30.437999725341797 C-44.595001220703125,30.437999725341797 44.595001220703125,30.437999725341797 44.595001220703125,30.437999725341797 C44.595001220703125,30.437999725341797 14.866000175476074,0 14.866000175476074,0 C14.866000175476074,0 44.595001220703125,-30.437999725341797 44.595001220703125,-30.437999725341797 C44.595001220703125,-30.437999725341797 -44.595001220703125,-30.437999725341797 -44.595001220703125,-30.437999725341797 C-44.595001220703125,-30.437999725341797 -44.595001220703125,30.437999725341797 -44.595001220703125,30.437999725341797z"/></g></g></g><g transform="matrix(0.9702957272529602,0.24192188680171967,-0.24192188680171967,0.9702957272529602,790.9439086914062,396.32855224609375)" opacity="1" style="display: block;"><g opacity="1" transform="matrix(1,0,0,1,84.80500030517578,189.0070037841797)"><path fill="rgb(10,35,64)" fill-opacity="1" d=" M51.53799819946289,155.73899841308594 C51.53799819946289,155.73899841308594 84.55500030517578,188.7570037841797 84.55500030517578,188.7570037841797 C84.55500030517578,188.7570037841797 84.55500030517578,141.06399536132812 84.55500030517578,141.06399536132812 C84.55500030517578,141.06399536132812 -52.367000579833984,-188.7570037841797 -52.367000579833984,-188.7570037841797 C-52.367000579833984,-188.7570037841797 -84.55500030517578,-174.08200073242188 -84.55500030517578,-174.08200073242188 C-84.55500030517578,-174.08200073242188 51.53799819946289,155.73899841308594 51.53799819946289,155.73899841308594z"/></g></g><g transform="matrix(1,0,0,1,691.2430419921875,505.85400390625)" opacity="1" style="display: block;"><g opacity="1" transform="matrix(1,0,0,1,129.20899963378906,51.70600128173828)"><path stroke-linecap="butt" stroke-linejoin="miter" fill-opacity="0" stroke-miterlimit="10" stroke="rgb(255,147,71)" stroke-opacity="1" stroke-width="14.311" d=" M-58.39500045776367,0.847000002861023 C-17.551000595092773,8.727999687194824 20.983999252319336,5.35699987411499 55.29399871826172,-3.4590001106262207"/></g></g><g transform="matrix(0.9510565400123596,-0.30901700258255005,0.30901700258255005,0.9510565400123596,635.1339111328125,450.7231140136719)" opacity="1" style="display: block;"><g opacity="1" transform="matrix(1,0,0,1,90.87300109863281,191.38600158691406)"><path fill="rgb(201,198,196)" fill-opacity="1" d=" M-79.17500305175781,191.13600158691406 C-79.17500305175781,191.13600158691406 -90.62300109863281,128.8350067138672 -90.62300109863281,128.8350067138672 C-90.62300109863281,128.8350067138672 57.34299850463867,-191.13600158691406 57.34299850463867,-191.13600158691406 C57.34299850463867,-191.13600158691406 90.62300109863281,-180.0679931640625 90.62300109863281,-180.0679931640625 C90.62300109863281,-180.0679931640625 -79.17500305175781,191.13600158691406 -79.17500305175781,191.13600158691406z"/></g></g><g transform="matrix(1,0,0,1,755.0400390625,287.68701171875)" opacity="1" style="display: block;"><g opacity="1" transform="matrix(1,0,0,1,44.025001525878906,24.280000686645508)"><path fill="rgb(201,198,196)" fill-opacity="1" d=" M14.001999855041504,24.030000686645508 C14.001999855041504,24.030000686645508 -14.001999855041504,24.030000686645508 -14.001999855041504,24.030000686645508 C-14.001999855041504,24.030000686645508 -14.001999855041504,-24.030000686645508 -14.001999855041504,-24.030000686645508 C-14.001999855041504,-24.030000686645508 14.001999855041504,-24.030000686645508 14.001999855041504,-24.030000686645508 C14.001999855041504,-24.030000686645508 14.001999855041504,24.030000686645508 14.001999855041504,24.030000686645508z"/></g><g opacity="1" transform="matrix(1,0,0,1,43.457000732421875,84.9229965209961)"><path fill="rgb(10,35,64)" fill-opacity="1" d=" M43.207000732421875,0 C43.207000732421875,23.86199951171875 23.863000869750977,43.207000732421875 0,43.207000732421875 C-23.86199951171875,43.207000732421875 -43.207000732421875,23.86199951171875 -43.207000732421875,0 C-43.207000732421875,-23.86199951171875 -23.86199951171875,-43.207000732421875 0,-43.207000732421875 C23.863000869750977,-43.207000732421875 43.207000732421875,-23.86199951171875 43.207000732421875,0z"/></g><g opacity="1" transform="matrix(1,0,0,1,43.457000732421875,84.9229965209961)"><path fill="rgb(255,255,255)" fill-opacity="1" d=" M21.485000610351562,0 C21.485000610351562,11.864999771118164 11.866000175476074,21.483999252319336 0.0010000000474974513,21.483999252319336 C-11.864999771118164,21.483999252319336 -21.485000610351562,11.864999771118164 -21.485000610351562,0 C-21.485000610351562,-11.864999771118164 -11.864999771118164,-21.483999252319336 0.0010000000474974513,-21.483999252319336 C11.866000175476074,-21.483999252319336 21.485000610351562,-11.864999771118164 21.485000610351562,0z"/></g></g><g transform="matrix(0.9087111949920654,-0.2368585616350174,0.2368585616350174,0.9087111949920654,453.900146484375,883.3876953125)" opacity="1" style="display: block;"><g opacity="1" transform="matrix(1,0,0,1,227.3990020751953,201.9709930419922)"><path fill="rgb(255,147,71)" fill-opacity="1" d=" M-226.6009979248047,201.72000122070312 C-226.6009979248047,201.72000122070312 -227.1490020751953,-201.72000122070312 -227.1490020751953,-201.72000122070312 C-227.1490020751953,-201.72000122070312 227.1490020751953,201.0989990234375 227.1490020751953,201.0989990234375 C227.1490020751953,201.0989990234375 -226.6009979248047,201.72000122070312 -226.6009979248047,201.72000122070312z"/></g><g opacity="1" transform="matrix(1,0,0,1,161.91200256347656,259.906005859375)"><path fill="rgb(75,149,240)" fill-opacity="1" d=" M-68.62699890136719,57.88199996948242 C-68.62699890136719,57.88199996948242 -68.79299926757812,-60.99800109863281 -68.79299926757812,-60.99800109863281 C-68.79299926757812,-60.99800109863281 68.79299926757812,60.99800109863281 68.79299926757812,60.99800109863281 C68.79299926757812,60.99800109863281 -68.62699890136719,57.88199996948242 -68.62699890136719,57.88199996948242z"/></g><g opacity="1" transform="matrix(1,0,0,1,230.15699768066406,254.1580047607422)"><path stroke-linecap="butt" stroke-linejoin="miter" fill-opacity="0" stroke-miterlimit="10" stroke="rgb(231,97,0)" stroke-opacity="1" stroke-width="6.679" d=" M165.6479949951172,143.35000610351562 C165.6479949951172,143.35000610351562 -165.6490020751953,-143.35000610351562 -165.6490020751953,-143.35000610351562"/></g></g><g transform="matrix(1,0,0,1,584.510009765625,385.0660095214844)" opacity="0.3125693774802575" style="display: block;"><g opacity="1" transform="matrix(1,0,0,1,20.267000198364258,20.267000198364258)"><path fill="rgb(201,198,196)" fill-opacity="1" d=" M20.01799964904785,0 C20.01799964904785,11.055000305175781 11.055000305175781,20.017000198364258 0,20.017000198364258 C-11.055999755859375,20.017000198364258 -20.01799964904785,11.055000305175781 -20.01799964904785,0 C-20.01799964904785,-11.055000305175781 -11.055999755859375,-20.017000198364258 0,-20.017000198364258 C11.055000305175781,-20.017000198364258 20.01799964904785,-11.055000305175781 20.01799964904785,0z"/></g></g><g transform="matrix(-0.8387515544891357,-0.5445142984390259,0.5445142984390259,-0.8387515544891357,514.0110473632812,377.49591064453125)" opacity="1" style="display: block;"><g opacity="1" transform="matrix(1,0,0,1,0,0)"><path stroke-linecap="round" stroke-linejoin="round" fill-opacity="0" stroke="rgb(201,198,196)" stroke-opacity="1" stroke-width="12" d=" M43.73699951171875,6 C43.73699951171875,6 43.73699951171875,81.4739990234375 43.73699951171875,81.4739990234375"/></g><g opacity="1" transform="matrix(1,0,0,1,0,0)"><path stroke-linecap="round" stroke-linejoin="round" fill-opacity="0" stroke="rgb(201,198,196)" stroke-opacity="1" stroke-width="12" d=" M81.4739990234375,43.73699951171875 C81.4739990234375,43.73699951171875 6,43.73699951171875 6,43.73699951171875"/></g></g><g transform="matrix(-0.8387515544891357,-0.5445142984390259,0.5445142984390259,-0.8387515544891357,1246.988525390625,1269.8095703125)" opacity="1" style="display: block;"><g opacity="1" transform="matrix(1,0,0,1,0,0)"><path stroke-linecap="round" stroke-linejoin="round" fill-opacity="0" stroke="rgb(201,198,196)" stroke-opacity="1" stroke-width="12" d=" M39.42599868774414,6 C39.42599868774414,6 39.42599868774414,72.85299682617188 39.42599868774414,72.85299682617188"/></g><g opacity="1" transform="matrix(1,0,0,1,0,0)"><path stroke-linecap="round" stroke-linejoin="round" fill-opacity="0" stroke="rgb(201,198,196)" stroke-opacity="1" stroke-width="12" d=" M72.85299682617188,39.426998138427734 C72.85299682617188,39.426998138427734 6,39.426998138427734 6,39.426998138427734"/></g></g><g clip-path="url(#__lottie_element_12430)" transform="matrix(1,0,0,1,1189.614013671875,140.50701904296875)" opacity="1" style="display: block;"><g opacity="1" transform="matrix(1,0,0,1,64.31800079345703,420.6099853515625)"><path fill="rgb(255,147,71)" fill-opacity="1" d=" M64.06800079345703,417.5090026855469 C64.06800079345703,417.5090026855469 -64.06800079345703,417.5090026855469 -64.06800079345703,417.5090026855469 C-64.06800079345703,417.5090026855469 -64.06800079345703,-417.5090026855469 -64.06800079345703,-417.5090026855469 C-64.06800079345703,-417.5090026855469 64.06800079345703,-417.5090026855469 64.06800079345703,-417.5090026855469 C64.06800079345703,-417.5090026855469 64.06800079345703,417.5090026855469 64.06800079345703,417.5090026855469z"/></g><g opacity="1" transform="matrix(1,0,0,1,0,0)"><path stroke-linecap="butt" stroke-linejoin="miter" fill-opacity="0" stroke-miterlimit="10" stroke="rgb(231,97,0)" stroke-opacity="1" stroke-width="6.679" d=" M64.31700134277344,3.3389999866485596 C64.31700134277344,3.3389999866485596 64.31700134277344,837.8800048828125 64.31700134277344,837.8800048828125"/></g></g><g transform="matrix(1,0,0,1,750,750)" opacity="1" style="display: block;"/></g></svg>